<svg width="74" height="72" viewBox="0 0 74 72" fill="none" xmlns="http://www.w3.org/2000/svg">
<path d="M45.0489 16.0141C48.2233 16.616 51.1406 18.1248 53.4276 20.3474C55.7145 22.57 57.267 25.4053 57.8864 28.4903L45.0489 16.0141ZM45.0489 3.37988C51.644 4.09193 57.7941 6.96222 62.4892 11.5195C67.1843 16.0767 70.1454 22.0501 70.8864 28.4587L45.0489 3.37988ZM67.6364 53.6639V63.1396C67.6401 64.0192 67.4547 64.8899 67.092 65.6959C66.7294 66.5019 66.1976 67.2254 65.5306 67.8201C64.8637 68.4148 64.0762 68.8675 63.2188 69.1493C62.3614 69.4312 61.4528 69.5358 60.5514 69.4566C50.5506 68.4006 40.9441 65.0794 32.5039 59.7599C24.6513 54.9105 17.9937 48.4402 13.0039 40.8086C7.51131 32.5686 4.09317 23.1871 3.02638 13.4241C2.94516 12.5506 3.05197 11.6703 3.34001 10.8392C3.62804 10.0081 4.09098 9.24432 4.69937 8.5966C5.30775 7.94889 6.04825 7.43138 6.8737 7.07703C7.69915 6.72268 8.59149 6.53925 9.49388 6.53843H19.2439C20.8211 6.52334 22.3502 7.06615 23.5461 8.06569C24.742 9.06522 25.5231 10.4533 25.7439 11.9711C26.1554 15.0035 26.9186 17.981 28.0189 20.8466C28.4561 21.9772 28.5508 23.2058 28.2916 24.387C28.0324 25.5682 27.4302 26.6524 26.5564 27.5112L22.4289 31.5225C27.0554 39.4301 33.7924 45.9774 41.9289 50.4738L46.0564 46.4624C46.94 45.6132 48.0556 45.028 49.271 44.7761C50.4864 44.5242 51.7506 44.6161 52.9139 45.0411C55.8625 46.1104 58.9262 46.8521 62.0464 47.2521C63.6251 47.4685 65.0669 48.2414 66.0976 49.4236C67.1283 50.6058 67.6759 52.1149 67.6364 53.6639Z" stroke="black" stroke-width="5" stroke-linecap="round" stroke-linejoin="round"/>
</svg>
