<svg width="1440" height="40" viewBox="0 0 1440 40" fill="none" xmlns="http://www.w3.org/2000/svg">
<path d="M583.855 40.0002L597.545 -0.0078125H599.271L585.58 40.0002H583.855ZM574.984 40.0002L588.677 -0.0078125H590.405L576.71 40.0002H574.984ZM566.118 40.0002L579.809 -0.0078125H581.535L567.845 40.0002H566.118ZM557.249 40.0002L570.942 -0.0078125H572.668L558.975 40.0002H557.249ZM548.382 40.0002L562.074 -0.0078125H563.801L550.109 40.0002H548.382ZM539.511 40.0002L553.204 -0.0078125H554.931L541.238 40.0002H539.511ZM530.645 40.0002L544.337 -0.0078125H546.064L532.372 40.0002H530.645ZM521.778 40.0002L535.468 -0.0078125H537.194L523.505 40.0002H521.778ZM512.909 40.0002L526.601 -0.0078125H528.327L514.635 40.0002H512.909ZM504.042 40.0002L517.732 -0.0078125H519.458L505.768 40.0002H504.042ZM495.172 40.0002L508.864 -0.0078125H510.591L496.898 40.0002H495.172ZM486.305 40.0002L499.999 -0.0078125H501.725L488.032 40.0002H486.305ZM477.436 40.0002L491.128 -0.0078125H492.855L479.16 40.0002H477.436ZM468.569 40.0002L482.262 -0.0078125H483.988L470.295 40.0002H468.569ZM708.65 40.0002L722.341 -0.0078125H724.067L710.374 40.0002H708.65ZM699.779 40.0002L713.471 -0.0078125H715.199L701.506 40.0002H699.779ZM690.913 40.0002L704.603 -0.0078125H706.329L692.639 40.0002H690.913ZM682.044 40.0002L695.737 -0.0078125H697.462L683.77 40.0002H682.044ZM673.176 40.0002L686.869 -0.0078125H688.596L674.903 40.0002H673.176ZM664.306 40.0002L677.999 -0.0078125H679.725L666.033 40.0002H664.306ZM655.44 40.0002L669.133 -0.0078125H670.859L657.166 40.0002H655.44ZM646.573 40.0002L660.265 -0.0078125H661.989L648.3 40.0002H646.573ZM637.703 40.0002L651.396 -0.0078125H653.122L639.43 40.0002H637.703ZM628.837 40.0002L642.526 -0.0078125H644.252L630.563 40.0002H628.837ZM619.966 40.0002L633.659 -0.0078125H635.386L621.693 40.0002H619.966ZM611.1 40.0002L624.795 -0.0078125H626.52L612.827 40.0002H611.1ZM602.23 40.0002L615.922 -0.0078125H617.649L603.955 40.0002H602.23ZM593.364 40.0002L607.056 -0.0078125H608.782L595.09 40.0002H593.364ZM834.183 40.0002L847.873 -0.0078125H849.599L835.908 40.0002H834.183ZM825.313 40.0002L839.005 -0.0078125H840.732L827.04 40.0002H825.313ZM816.446 40.0002L830.137 -0.0078125H831.861L818.172 40.0002H816.446ZM807.577 40.0002L821.269 -0.0078125H822.995L809.302 40.0002H807.577ZM798.71 40.0002L812.403 -0.0078125H814.13L800.436 40.0002H798.71ZM789.839 40.0002L803.533 -0.0078125H805.26L791.566 40.0002H789.839ZM780.973 40.0002L794.666 -0.0078125H796.393L782.699 40.0002H780.973ZM772.107 40.0002L785.796 -0.0078125H787.522L773.833 40.0002H772.107ZM763.236 40.0002L776.93 -0.0078125H778.656L764.963 40.0002H763.236ZM754.371 40.0002L768.059 -0.0078125H769.786L756.096 40.0002H754.371ZM745.5 40.0002L759.193 -0.0078125H760.918L747.226 40.0002H745.5ZM736.634 40.0002L750.326 -0.0078125H752.053L738.361 40.0002H736.634ZM727.763 40.0002L741.456 -0.0078125H743.182L729.489 40.0002H727.763ZM718.898 40.0002L732.59 -0.0078125H734.316L720.624 40.0002H718.898ZM958.978 40.0002L972.667 -0.0078125H974.394L960.702 40.0002H958.978ZM950.107 40.0002L963.801 -0.0078125H965.528L951.834 40.0002H950.107ZM941.241 40.0002L954.931 -0.0078125H956.656L942.967 40.0002H941.241ZM932.371 40.0002L946.064 -0.0078125H947.79L934.097 40.0002H932.371ZM923.505 40.0002L937.197 -0.0078125H938.924L925.231 40.0002H923.505ZM914.634 40.0002L928.327 -0.0078125H930.054L916.361 40.0002H914.634ZM905.768 40.0002L919.46 -0.0078125H921.187L907.495 40.0002H905.768ZM896.901 40.0002L910.591 -0.0078125H912.317L898.627 40.0002H896.901ZM888.031 40.0002L901.724 -0.0078125H903.45L889.758 40.0002H888.031ZM879.165 40.0002L892.854 -0.0078125H894.582L880.889 40.0002H879.165ZM870.295 40.0002L883.987 -0.0078125H885.713L872.021 40.0002H870.295ZM861.428 40.0002L875.121 -0.0078125H876.848L863.154 40.0002H861.428ZM852.558 40.0002L866.25 -0.0078125H867.977L854.285 40.0002H852.558ZM843.692 40.0002L857.385 -0.0078125H859.111L845.418 40.0002H843.692ZM1083.46 40.0002L1097.15 -0.0078125H1098.88L1085.19 40.0002H1083.46ZM1074.59 40.0002L1088.28 -0.0078125H1090.01L1076.32 40.0002H1074.59ZM1065.72 40.0002L1079.42 -0.0078125H1081.14L1067.45 40.0002H1065.72ZM1056.86 40.0002L1070.55 -0.0078125H1072.27L1058.58 40.0002H1056.86ZM1047.99 40.0002L1061.68 -0.0078125H1063.41L1049.71 40.0002H1047.99ZM1039.12 40.0002L1052.81 -0.0078125H1054.54L1040.84 40.0002H1039.12ZM1030.25 40.0002L1043.94 -0.0078125H1045.67L1031.98 40.0002H1030.25ZM1021.38 40.0002L1035.07 -0.0078125H1036.8L1023.11 40.0002H1021.38ZM1012.51 40.0002L1026.21 -0.0078125H1027.93L1014.24 40.0002H1012.51ZM1003.65 40.0002L1017.34 -0.0078125H1019.06L1005.37 40.0002H1003.65ZM994.777 40.0002L1008.47 -0.0078125H1010.2L996.503 40.0002H994.777ZM985.911 40.0002L999.605 -0.0078125H1001.33L987.638 40.0002H985.911ZM977.042 40.0002L990.734 -0.0078125H992.461L978.766 40.0002H977.042ZM968.175 40.0002L981.868 -0.0078125H983.593L969.901 40.0002H968.175ZM1208.26 40.0002L1221.95 -0.0078125H1223.67L1209.98 40.0002H1208.26ZM1199.38 40.0002L1213.08 -0.0078125H1214.81L1201.11 40.0002H1199.38ZM1190.52 40.0002L1204.21 -0.0078125H1205.93L1192.25 40.0002H1190.52ZM1181.65 40.0002L1195.34 -0.0078125H1197.07L1183.38 40.0002H1181.65ZM1172.78 40.0002L1186.47 -0.0078125H1188.2L1174.51 40.0002H1172.78ZM1163.91 40.0002L1177.6 -0.0078125H1179.33L1165.64 40.0002H1163.91ZM1155.05 40.0002L1168.74 -0.0078125H1170.46L1156.77 40.0002H1155.05ZM1146.18 40.0002L1159.87 -0.0078125H1161.6L1147.91 40.0002H1146.18ZM1137.31 40.0002L1151 -0.0078125H1152.73L1139.04 40.0002H1137.31ZM1128.44 40.0002L1142.13 -0.0078125H1143.86L1130.17 40.0002H1128.44ZM1119.57 40.0002L1133.26 -0.0078125H1134.99L1121.3 40.0002H1119.57ZM1110.71 40.0002L1124.4 -0.0078125H1126.13L1112.43 40.0002H1110.71ZM1101.84 40.0002L1115.53 -0.0078125H1117.26L1103.56 40.0002H1101.84ZM1092.97 40.0002L1106.66 -0.0078125H1108.39L1094.7 40.0002H1092.97ZM1333.79 40.0002L1347.48 -0.0078125H1349.2L1335.51 40.0002H1333.79ZM1324.92 40.0002L1338.61 -0.0078125H1340.34L1326.65 40.0002H1324.92ZM1316.05 40.0002L1329.74 -0.0078125H1331.47L1317.78 40.0002H1316.05ZM1307.18 40.0002L1320.88 -0.0078125H1322.6L1308.91 40.0002H1307.18ZM1298.32 40.0002L1312.01 -0.0078125H1313.74L1300.04 40.0002H1298.32ZM1289.44 40.0002L1303.14 -0.0078125H1304.87L1291.17 40.0002H1289.44ZM1280.58 40.0002L1294.27 -0.0078125H1296L1282.3 40.0002H1280.58ZM1271.71 40.0002L1285.4 -0.0078125H1287.13L1273.44 40.0002H1271.71ZM1262.84 40.0002L1276.54 -0.0078125H1278.26L1264.57 40.0002H1262.84ZM1253.98 40.0002L1267.66 -0.0078125H1269.39L1255.7 40.0002H1253.98ZM1245.11 40.0002L1258.8 -0.0078125H1260.52L1246.83 40.0002H1245.11ZM1236.24 40.0002L1249.93 -0.0078125H1251.66L1237.97 40.0002H1236.24ZM1227.37 40.0002L1241.06 -0.0078125H1242.79L1229.09 40.0002H1227.37ZM1218.5 40.0002L1232.2 -0.0078125H1233.92L1220.23 40.0002H1218.5ZM1458.58 40.0002L1472.27 -0.0078125H1474L1460.31 40.0002H1458.58ZM1449.71 40.0002L1463.41 -0.0078125H1465.13L1451.44 40.0002H1449.71ZM1440.85 40.0002L1454.54 -0.0078125H1456.26L1442.57 40.0002H1440.85ZM1431.98 40.0002L1445.67 -0.0078125H1447.4L1433.7 40.0002H1431.98ZM1423.11 40.0002L1436.8 -0.0078125H1438.53L1424.84 40.0002H1423.11ZM1414.24 40.0002L1427.93 -0.0078125H1429.66L1415.97 40.0002H1414.24ZM1405.37 40.0002L1419.07 -0.0078125H1420.79L1407.1 40.0002H1405.37ZM1396.51 40.0002L1410.2 -0.0078125H1411.92L1398.23 40.0002H1396.51ZM1387.64 40.0002L1401.33 -0.0078125H1403.06L1389.36 40.0002H1387.64ZM1378.77 40.0002L1392.46 -0.0078125H1394.19L1380.49 40.0002H1378.77ZM1369.9 40.0002L1383.59 -0.0078125H1385.32L1371.63 40.0002H1369.9ZM1361.03 40.0002L1374.73 -0.0078125H1376.45L1362.76 40.0002H1361.03ZM1352.16 40.0002L1365.86 -0.0078125H1367.58L1353.89 40.0002H1352.16ZM1343.3 40.0002L1356.99 -0.0078125H1358.72L1345.02 40.0002H1343.3ZM85.2866 40.0002L98.975 -0.0078125H100.702L87.0104 40.0002H85.2866ZM76.415 40.0002L90.1075 -0.0078125H91.8354L78.1408 40.0002H76.415ZM67.5486 40.0002L81.24 -0.0078125H82.9659L69.2754 40.0002H67.5486ZM58.68 40.0002L72.3725 -0.0078125H74.0984L60.4058 40.0002H58.68ZM49.8125 40.0002L63.5051 -0.0078125H65.2319L51.5394 40.0002H49.8125ZM40.942 40.0002L54.6345 -0.0078125H56.3613L42.6688 40.0002H40.942ZM32.0755 40.0002L45.768 -0.0078125H47.4949L33.8024 40.0002H32.0755ZM23.2091 40.0002L36.8985 -0.0078125H38.6243L24.9359 40.0002H23.2091ZM14.3395 40.0002L28.032 -0.0078125H29.7578L16.0653 40.0002H14.3395ZM5.47305 40.0002L19.1625 -0.0078125H20.8883L7.19783 40.0002H5.47305ZM-3.39754 40.0002L10.295 -0.0078125H12.0218L-1.67173 40.0002H-3.39754ZM-12.264 40.0002L1.42956 -0.0078125H3.15538L-10.5371 40.0002H-12.264ZM-21.1336 40.0002L-7.44104 -0.0078125H-5.71418L-19.4088 40.0002H-21.1336ZM-30 40.0002L-16.3075 -0.0078125H-14.5817L-28.2742 40.0002H-30ZM210.08 40.0002L223.771 -0.0078125H225.497L211.805 40.0002H210.08ZM201.21 40.0002L214.902 -0.0078125H216.63L202.937 40.0002H201.21ZM192.343 40.0002L206.034 -0.0078125H207.759L194.07 40.0002H192.343ZM183.475 40.0002L197.167 -0.0078125H198.893L185.201 40.0002H183.475ZM174.607 40.0002L188.3 -0.0078125H190.027L176.334 40.0002H174.607ZM165.737 40.0002L179.429 -0.0078125H181.156L167.464 40.0002H165.737ZM156.871 40.0002L170.564 -0.0078125H172.29L158.597 40.0002H156.871ZM148.004 40.0002L161.693 -0.0078125H163.419L149.731 40.0002H148.004ZM139.134 40.0002L152.827 -0.0078125H154.553L140.86 40.0002H139.134ZM130.268 40.0002L143.957 -0.0078125H145.683L131.993 40.0002H130.268ZM121.397 40.0002L135.09 -0.0078125H136.817L123.124 40.0002H121.397ZM112.531 40.0002L126.225 -0.0078125H127.951L114.258 40.0002H112.531ZM103.661 40.0002L117.353 -0.0078125H119.079L105.386 40.0002H103.661ZM94.7947 40.0002L108.487 -0.0078125H110.213L96.5205 40.0002H94.7947ZM335.614 40.0002L349.303 -0.0078125H351.029L337.339 40.0002H335.614ZM326.743 40.0002L340.436 -0.0078125H342.163L328.47 40.0002H326.743ZM317.877 40.0002L331.567 -0.0078125H333.292L319.603 40.0002H317.877ZM309.007 40.0002L322.7 -0.0078125H324.426L310.733 40.0002H309.007ZM300.14 40.0002L313.832 -0.0078125H315.56L301.867 40.0002H300.14ZM291.269 40.0002L304.964 -0.0078125H306.691L292.997 40.0002H291.269ZM282.404 40.0002L296.096 -0.0078125H297.823L284.13 40.0002H282.404ZM273.537 40.0002L287.227 -0.0078125H288.953L275.263 40.0002H273.537ZM264.667 40.0002L278.36 -0.0078125H280.085L266.393 40.0002H264.667ZM255.801 40.0002L269.49 -0.0078125H271.217L257.526 40.0002H255.801ZM246.931 40.0002L260.623 -0.0078125H262.349L248.657 40.0002H246.931ZM238.064 40.0002L251.757 -0.0078125H253.484L239.791 40.0002H238.064ZM229.194 40.0002L242.886 -0.0078125H244.613L230.92 40.0002H229.194ZM220.328 40.0002L234.021 -0.0078125H235.747L222.054 40.0002H220.328ZM460.409 40.0002L474.098 -0.0078125H475.824L462.133 40.0002H460.409ZM451.538 40.0002L465.231 -0.0078125H466.957L453.265 40.0002H451.538ZM442.672 40.0002L456.362 -0.0078125H458.087L444.397 40.0002H442.672ZM433.802 40.0002L447.495 -0.0078125H449.22L435.528 40.0002H433.802ZM424.936 40.0002L438.628 -0.0078125H440.355L426.661 40.0002H424.936ZM416.064 40.0002L429.758 -0.0078125H431.484L417.792 40.0002H416.064ZM407.199 40.0002L420.891 -0.0078125H422.618L408.925 40.0002H407.199ZM398.332 40.0002L412.022 -0.0078125H413.747L400.058 40.0002H398.332ZM389.462 40.0002L403.155 -0.0078125H404.881L391.188 40.0002H389.462ZM380.596 40.0002L394.285 -0.0078125H396.012L382.32 40.0002H380.596ZM371.726 40.0002L385.418 -0.0078125H387.144L373.451 40.0002H371.726ZM362.859 40.0002L376.552 -0.0078125H378.278L364.585 40.0002H362.859ZM353.989 40.0002L367.681 -0.0078125H369.408L355.714 40.0002H353.989ZM345.123 40.0002L358.816 -0.0078125H360.541L346.849 40.0002H345.123Z" fill="#EDB509"/>
</svg>
