<svg width="56" height="54" viewBox="0 0 56 54" fill="none" xmlns="http://www.w3.org/2000/svg">
<path d="M20.2324 40.7579V31.2993H34.3343V40.7579H20.2324Z" fill="#FFDEC7"/>
<path fill-rule="evenodd" clip-rule="evenodd" d="M26.2606 18.7451L10.7827 18.7451C10.6681 17.1973 11.6082 14.1018 16.2859 14.1018H26.2606H28.1522H38.1269C42.8046 14.1018 43.7447 17.1973 43.63 18.7451L28.1522 18.7451L26.2606 18.7451Z" fill="#DF8761"/>
<path fill-rule="evenodd" clip-rule="evenodd" d="M38.6372 14.1019C38.7481 13.4314 38.8058 12.7418 38.8058 12.0382C38.8058 5.38969 33.6471 0 27.2835 0C20.92 0 15.7612 5.38969 15.7612 12.0382C15.7612 12.7418 15.819 13.4314 15.9299 14.1019H38.6372Z" fill="#F29B75"/>
<path fill-rule="evenodd" clip-rule="evenodd" d="M39.6655 18.9172C41.0413 19.0892 41.8657 20.4047 41.7292 21.4969C41.5572 22.8727 40.6973 24.2484 36.9139 23.9045C36.9699 27.3247 35.1725 34.09 27.6274 34.385V34.395C27.5406 34.395 27.4545 34.3941 27.3691 34.3925C27.2839 34.3941 27.198 34.3949 27.1113 34.3949V34.385C19.5663 34.09 17.7688 27.3247 17.8248 23.9045C14.0414 24.2485 13.1815 22.8727 13.0096 21.4969C12.873 20.4047 13.6974 19.0892 15.0732 18.9172H27.1113V18.9172H39.6655Z" fill="#FFDEC7"/>
<path d="M41.7292 21.4969L41.7788 21.5031L41.7292 21.4969ZM39.6655 18.9172L39.6717 18.8672H39.6655V18.9172ZM36.9139 23.9045L36.9184 23.8547L36.863 23.8497L36.8639 23.9053L36.9139 23.9045ZM27.6274 34.385L27.6254 34.335L27.5774 34.3369V34.385H27.6274ZM27.6274 34.395V34.445H27.6774V34.395H27.6274ZM27.3691 34.3925L27.3701 34.3425L27.3682 34.3425L27.3691 34.3925ZM27.1113 34.3949H27.0613V34.4449H27.1113V34.3949ZM27.1113 34.385H27.1613V34.3369L27.1133 34.335L27.1113 34.385ZM17.8248 23.9045L17.8748 23.9053L17.8757 23.8497L17.8203 23.8547L17.8248 23.9045ZM13.0096 21.4969L13.0592 21.4907L13.0096 21.4969ZM15.0732 18.9172V18.8669L15.067 18.8676L15.0732 18.9172ZM27.1113 18.9172V18.9672H27.1613V18.9172H27.1113ZM27.1113 18.9172V18.8672H27.0613V18.9172H27.1113ZM41.7788 21.5031C41.9184 20.3857 41.077 19.0433 39.6717 18.8676L39.6593 18.9669C41.0055 19.1351 41.8129 20.4237 41.6795 21.4907L41.7788 21.5031ZM36.9093 23.9543C38.8058 24.1267 39.9803 23.8694 40.7036 23.3872C41.4293 22.9033 41.6917 22.1994 41.7788 21.5031L41.6795 21.4907C41.5946 22.1702 41.3411 22.842 40.6481 23.304C39.9525 23.7677 38.8054 24.0262 36.9184 23.8547L36.9093 23.9543ZM27.6293 34.4349C31.4194 34.2868 33.7695 32.5121 35.1631 30.3437C36.5551 28.1778 36.992 25.6211 36.9639 23.9037L36.8639 23.9053C36.8918 25.608 36.458 28.1441 35.079 30.2896C33.7017 32.4327 31.3805 34.1882 27.6254 34.335L27.6293 34.4349ZM27.5774 34.385V34.395H27.6774V34.385H27.5774ZM27.6274 34.345C27.5409 34.345 27.4551 34.3441 27.3701 34.3425L27.3682 34.4425C27.4539 34.4441 27.5403 34.445 27.6274 34.445V34.345ZM27.1113 34.4449C27.1983 34.4449 27.2845 34.4441 27.3701 34.4425L27.3682 34.3425C27.2833 34.3441 27.1977 34.3449 27.1113 34.3449V34.4449ZM27.0613 34.385V34.3949H27.1613V34.385H27.0613ZM27.1133 34.335C23.3583 34.1882 21.0371 32.4327 19.6597 30.2896C18.2807 28.1441 17.8469 25.608 17.8748 23.9053L17.7748 23.9037C17.7467 25.6212 18.1836 28.1778 19.5756 30.3437C20.9692 32.5121 23.3193 34.2868 27.1094 34.4349L27.1133 34.335ZM17.8203 23.8547C15.9333 24.0263 14.7862 23.7677 14.0906 23.304C13.3976 22.842 13.1441 22.1702 13.0592 21.4907L12.9599 21.5031C13.047 22.1994 13.3094 22.9034 14.0352 23.3872C14.7584 23.8694 15.9329 24.1267 17.8294 23.9543L17.8203 23.8547ZM13.0592 21.4907C12.9258 20.4237 13.7332 19.1351 15.0794 18.9669L15.067 18.8676C13.6617 19.0433 12.8203 20.3857 12.9599 21.5031L13.0592 21.4907ZM15.0732 18.9672H27.1113V18.8672H15.0732V18.9672ZM27.0613 18.9172V18.9172H27.1613V18.9172H27.0613ZM39.6655 18.8672H27.1113V18.9672H39.6655V18.8672Z" fill="black" fill-opacity="0.5"/>
<path fill-rule="evenodd" clip-rule="evenodd" d="M27.5413 39.714C29.3015 39.4554 33.0909 38.1954 34.8502 35.0828C36.1348 35.5499 37.7785 36.0655 39.523 36.6127C43.7731 37.946 48.621 39.4668 50.328 40.9299C53.0451 43.2588 55.6592 46.2611 54.9713 54L27.6273 54H0.111402C-0.576497 46.2611 2.03761 43.2588 4.75466 40.9299C6.46165 39.4668 11.3096 37.946 15.5597 36.6127C17.3041 36.0655 18.9479 35.5499 20.2324 35.0828C21.9917 38.1954 25.7811 39.4554 27.5413 39.714Z" fill="#EDEBF2"/>
<path fill-rule="evenodd" clip-rule="evenodd" d="M17.9966 35.655V44.6511H27.4552L36.5699 44.6511V35.655C39.7342 36.5017 41.2705 37.0074 41.5571 37.2426V44.6511C45.2718 45.2156 45.2833 51.0013 44.8247 53.8236H27.1113L9.74186 53.8236C9.28326 51.0013 9.29473 45.2156 13.0094 44.6511L13.0094 37.2426C13.296 37.0074 14.8323 36.5017 17.9966 35.655Z" fill="#F29B75"/>
<path fill-rule="evenodd" clip-rule="evenodd" d="M27.3304 25.4102C28.3049 24.9516 30.5442 24.7223 31.8017 26.958C33.3495 29.7096 29.0501 29.0217 27.3304 27.9899V25.4102ZM27.3303 25.4102C26.3558 24.9516 24.1165 24.7223 22.8589 26.958C21.3112 29.7096 25.6106 29.0217 27.3303 27.9899V25.4102Z" fill="#453F3F"/>
</svg>
