<svg width="71" height="54" viewBox="0 0 71 54" fill="none" xmlns="http://www.w3.org/2000/svg">
<path d="M14.6655 36.9884C13.7909 36.9884 5.19075 33.6809 1 32.0272V46.0839C9.29039 48.3808 26.4725 52.9745 28.8776 52.9745C31.884 52.9745 52.3822 49.667 54.2954 48.5645C56.2086 47.4621 68.5075 39.1934 70.1474 37.264C71.7872 35.3347 69.6007 33.1297 68.2342 33.1297C66.8676 33.1297 53.7488 40.5715 52.3822 41.1227C51.0157 41.674 38.7167 40.0202 35.1637 39.7446C31.6107 39.469 32.4306 36.4372 33.5239 35.8859C34.6171 35.3347 46.1697 36.9672 48.0093 36.4372C49.9224 35.8859 50.7424 32.3028 48.5559 30.9247C46.4191 29.5779 31.6107 28.7197 29.9708 28.7197C28.331 28.7197 15.7587 36.9884 14.6655 36.9884Z" fill="#FFDEC7" stroke="#E9CBB6" stroke-width="0.5"/>
<path d="M36.8384 21.0063C37.9179 21.0063 39.6496 20.4363 40.3805 20.1513C39.0311 15.5345 41.7299 6.88051 49.3201 6.12981C54.7176 5.59597 61.1271 2.88093 62.4765 1C62.7014 6.3578 61.5994 18.202 55.3923 22.7162C49.1852 27.2304 43.1355 24.7111 40.8865 22.8872C39.987 23.1152 37.9854 23.5712 37.1758 23.5712C36.1637 23.5712 35.489 21.0063 36.8384 21.0063Z" fill="#008000" stroke="#008000" stroke-width="0.5"/>
</svg>
